<svg width="65" height="65" viewBox="0 0 65 65" fill="none" xmlns="http://www.w3.org/2000/svg">
<path d="M24.514 55.7942V47.6402C24.514 45.5588 26.2137 43.8714 28.3105 43.8714H35.9749C36.9818 43.8714 37.9474 44.2685 38.6594 44.9753C39.3714 45.6821 39.7713 46.6407 39.7713 47.6402V55.7942C39.765 56.6595 40.1068 57.4916 40.7209 58.1057C41.3351 58.7199 42.1708 59.0653 43.0425 59.0653H48.2715C50.7137 59.0715 53.058 58.1128 54.7871 56.4007C56.5162 54.6887 57.488 52.3639 57.488 49.9395V26.7102C57.488 24.7518 56.6135 22.8942 55.1003 21.6377L37.312 7.53425C34.2177 5.06143 29.7843 5.14127 26.7823 7.72388L9.39999 21.6377C7.81526 22.8571 6.8681 24.7203 6.82129 26.7102V49.9158C6.82129 54.9689 10.9476 59.0653 16.0378 59.0653H21.1474C22.9579 59.0653 24.4293 57.6152 24.4424 55.8179L24.514 55.7942Z" fill="black"/>
</svg>
